<svg xmlns="http://www.w3.org/2000/svg" version="1.1" xmlns:xlink="http://www.w3.org/1999/xlink" xmlns:svgjs="http://svgjs.dev/svgjs" width="1000" height="1000" viewBox="0 0 1000 1000"><rect width="1000" height="1000" fill="#000000"></rect><g transform="matrix(0.7,0,0,0.7,150.00002346093743,106.25)"><svg viewBox="0 0 320 360" data-background-color="#fcf3e4" preserveAspectRatio="xMidYMid meet" height="1125" width="1000" xmlns="http://www.w3.org/2000/svg" xmlns:xlink="http://www.w3.org/1999/xlink"><g id="tight-bounds" transform="matrix(1,0,0,1,0.00001072500003829191,0)"><svg viewBox="0 0 320 360" height="360" width="320"><g><svg></svg></g><g><svg viewBox="0 0 320 360" height="360" width="320"><g><path transform="translate(-21.67367,-1.67367) scale(3.63347,3.63347)" d="M87.84 28.16c-3.42-5.92-31.01-21.84-37.84-21.84-6.83 0-34.41 15.92-37.84 21.84-3.19 5.51-3.19 38.18 0 43.69 3.43 5.91 31.01 21.83 37.84 21.83 6.83 0 34.42-15.92 37.84-21.84 3.19-5.51 3.19-38.17 0-43.68zM91.14 26.25c-3.98-6.88-32.88-23.75-41.14-23.75-8.26 0-37.16 16.87-41.14 23.75-3.86 6.66-3.86 40.84 0 47.5 3.98 6.88 32.88 23.75 41.14 23.75 8.26 0 37.16-16.87 41.14-23.74 3.86-6.67 3.86-40.85 0-47.51zM88.78 72.39c-3.51 6.07-31.78 22.38-38.78 22.38-7 0-35.27-16.32-38.78-22.39-3.27-5.65-3.27-39.13 0-44.78 3.51-6.06 31.78-22.37 38.78-22.37 7 0 35.27 16.32 38.78 22.38 3.27 5.65 3.27 39.13 0 44.78z" fill="#ffffff" fill-rule="nonzero" stroke="none" stroke-width="1" stroke-linecap="butt" stroke-linejoin="miter" stroke-miterlimit="10" stroke-dasharray="" stroke-dashoffset="0" font-family="none" font-weight="none" font-size="none" text-anchor="none" style="mix-blend-mode: normal" data-fill-palette-color="tertiary"></path></g><g transform="matrix(1,0,0,1,48,151.35149133967914)"><svg viewBox="0 0 224 57.297017320641736" height="57.297017320641736" width="224"><g><svg viewBox="0 0 225.11999999999998 57.583502407244936" height="57.297017320641736" width="224"><g><rect width="225.11999999999998" height="1.428463259775379" x="0" y="36.57565406912945" fill="#ffffff" opacity="1" stroke-width="0" stroke="transparent" fill-opacity="1" class="rect-r$-0" data-fill-palette-color="secondary" rx="1%" id="r$-0" data-palette-color="#faa625"></rect></g><g transform="matrix(1,0,0,1,0.5599999999999881,41.74354994611786)"><svg viewBox="0 0 224 15.839952461127067" height="15.839952461127067" width="224"><g id="textblocktransform"><svg viewBox="0 0 224 15.839952461127067" height="15.839952461127067" width="224" id="textblock"><g><svg viewBox="0 0 224 15.839952461127067" height="15.839952461127067" width="224"><g transform="matrix(1,0,0,1,0,0)"><svg width="224" viewBox="1.75 -35 504.82 35.7" height="15.839952461127067" data-palette-color="#fcf3e4"><path d="M37.85-7.2L40.95-2.9Q39.55-1.3 37.8-0.3 36.05 0.7 33.5 0.7L33.5 0.7Q28.9 0.7 25.83-2.53 22.75-5.75 21.05-12.55L21.05-12.55 20.55-14.15 14.4-14.15 14.4-5.2 20.25-5.2 20.25 0 1.75 0 1.75-5.25 7.75-5.25 7.75-29.05 1.75-29.05 1.75-34.3 21.95-34.3Q28-34.3 31.58-31.63 35.15-28.95 35.15-24.25L35.15-24.25Q35.15-20.35 32.88-17.85 30.6-15.35 26.4-14.5L26.4-14.5 26.95-12.95Q28.3-8.85 30.03-7.13 31.75-5.4 33.9-5.4L33.9-5.4Q36.15-5.4 37.85-7.2L37.85-7.2ZM14.4-29.05L14.4-19.05 22.15-19.05Q24.8-19.05 26.7-20.38 28.6-21.7 28.6-24.25L28.6-24.25Q28.6-26.6 26.75-27.83 24.9-29.05 22.15-29.05L22.15-29.05 14.4-29.05ZM76.1-5.25L80.9-5.25 80.9 0 63.95 0 63.95-5.25 69.2-5.25 66.7-11.75 53.05-11.75 50.55-5.25 56.3-5.25 56.3 0 39.6 0 39.6-5.25 44.3-5.25 54.45-29.1 50.15-29.1 50.15-34.3 70.2-34.3 70.2-29.1 65.85-29.1 76.1-5.25ZM54.85-16.45L64.9-16.45 60-29.1 59.75-29.1 54.85-16.45ZM127.4-34.3L127.4-29.05 121.6-29.05 121.6 0.3 118.15 0.35 95.3-25.25 95.3-5.25 101.2-5.25 101.2 0 83.05 0 83.05-5.25 89.05-5.25 89.05-29.05 83.05-29.05 83.05-34.3 95.3-34.3 115.5-11.1 115.5-29.05 109.5-29.05 109.5-34.3 127.4-34.3ZM159.94-11.25L164.24-7.75Q161.59-3.85 157.67-1.6 153.74 0.65 148.54 0.65L148.54 0.65Q143.49 0.65 139.32-1.65 135.14-3.95 132.72-8 130.29-12.05 130.29-17.05L130.29-17.05Q130.29-22.25 132.59-26.35 134.89-30.45 138.77-32.73 142.64-35 147.14-35L147.14-35Q153.59-35 157.59-30.7L157.59-30.7 157.59-34.3 163.54-34.3 163.54-22.75 159.24-22.35Q157.69-25.75 154.94-27.75 152.19-29.75 148.14-29.75L148.14-29.75Q145.29-29.75 142.77-28.23 140.24-26.7 138.72-23.83 137.19-20.95 137.19-17.15L137.19-17.15Q137.19-13.65 138.69-10.83 140.19-8 142.79-6.38 145.39-4.75 148.54-4.75L148.54-4.75Q152.44-4.75 155.12-6.43 157.79-8.1 159.94-11.25L159.94-11.25ZM210.74-29.05L204.74-29.05 204.74-5.25 210.74-5.25 210.74 0 192.09 0 192.09-5.25 198.09-5.25 198.09-15 180.44-15 180.44-5.25 186.44-5.25 186.44 0 167.79 0 167.79-5.25 173.79-5.25 173.79-29.05 167.79-29.05 167.79-34.3 186.44-34.3 186.44-29.05 180.44-29.05 180.44-19.95 198.09-19.95 198.09-29.05 192.09-29.05 192.09-34.3 210.74-34.3 210.74-29.05ZM259.13-11.25L263.44-7.75Q260.79-3.85 256.86-1.6 252.94 0.65 247.74 0.65L247.74 0.65Q242.69 0.65 238.51-1.65 234.34-3.95 231.91-8 229.49-12.05 229.49-17.05L229.49-17.05Q229.49-22.25 231.79-26.35 234.09-30.45 237.96-32.73 241.84-35 246.34-35L246.34-35Q252.79-35 256.79-30.7L256.79-30.7 256.79-34.3 262.74-34.3 262.74-22.75 258.44-22.35Q256.88-25.75 254.14-27.75 251.39-29.75 247.34-29.75L247.34-29.75Q244.49-29.75 241.96-28.23 239.44-26.7 237.91-23.83 236.39-20.95 236.39-17.15L236.39-17.15Q236.39-13.65 237.89-10.83 239.39-8 241.99-6.38 244.59-4.75 247.74-4.75L247.74-4.75Q251.64-4.75 254.31-6.43 256.99-8.1 259.13-11.25L259.13-11.25ZM285.28 0.65Q280.08 0.65 275.91-1.68 271.73-4 269.36-8.05 266.98-12.1 266.98-17.15L266.98-17.15Q266.98-22.2 269.36-26.28 271.73-30.35 275.93-32.68 280.13-35 285.28-35L285.28-35Q290.38-35 294.56-32.68 298.73-30.35 301.11-26.28 303.48-22.2 303.48-17.15L303.48-17.15Q303.48-12.15 301.11-8.08 298.73-4 294.56-1.68 290.38 0.65 285.28 0.65L285.28 0.65ZM285.28-4.75Q288.58-4.75 291.16-6.38 293.73-8 295.13-10.85 296.53-13.7 296.53-17.15L296.53-17.15Q296.53-20.65 295.13-23.5 293.73-26.35 291.18-27.98 288.63-29.6 285.28-29.6L285.28-29.6Q281.83-29.6 279.26-27.95 276.68-26.3 275.28-23.48 273.88-20.65 273.88-17.15L273.88-17.15Q273.88-13.6 275.28-10.8 276.68-8 279.26-6.38 281.83-4.75 285.28-4.75L285.28-4.75ZM351.68-34.3L351.68-29.05 345.88-29.05 345.88 0.3 342.43 0.35 319.58-25.25 319.58-5.25 325.48-5.25 325.48 0 307.33 0 307.33-5.25 313.33-5.25 313.33-29.05 307.33-29.05 307.33-34.3 319.58-34.3 339.78-11.1 339.78-29.05 333.78-29.05 333.78-34.3 351.68-34.3ZM353.93-34.3L389.88-34.3 389.88-22.05 384.08-22.05 384.08-29.05 375.28-29.05 375.28-5.25 381.28-5.25 381.28 0 362.63 0 362.63-5.25 368.63-5.25 368.63-29.05 359.73-29.05 359.73-22.05 353.93-22.05 353.93-34.3ZM429.38-7.2L432.47-2.9Q431.07-1.3 429.32-0.3 427.57 0.7 425.02 0.7L425.02 0.7Q420.42 0.7 417.35-2.53 414.27-5.75 412.57-12.55L412.57-12.55 412.07-14.15 405.92-14.15 405.92-5.2 411.77-5.2 411.77 0 393.27 0 393.27-5.25 399.27-5.25 399.27-29.05 393.27-29.05 393.27-34.3 413.47-34.3Q419.52-34.3 423.1-31.63 426.67-28.95 426.67-24.25L426.67-24.25Q426.67-20.35 424.4-17.85 422.13-15.35 417.92-14.5L417.92-14.5 418.47-12.95Q419.82-8.85 421.55-7.13 423.27-5.4 425.42-5.4L425.42-5.4Q427.67-5.4 429.38-7.2L429.38-7.2ZM405.92-29.05L405.92-19.05 413.67-19.05Q416.32-19.05 418.22-20.38 420.13-21.7 420.13-24.25L420.13-24.25Q420.13-26.6 418.27-27.83 416.42-29.05 413.67-29.05L413.67-29.05 405.92-29.05ZM451.77 0.65Q446.57 0.65 442.4-1.68 438.22-4 435.85-8.05 433.47-12.1 433.47-17.15L433.47-17.15Q433.47-22.2 435.85-26.28 438.22-30.35 442.42-32.68 446.62-35 451.77-35L451.77-35Q456.87-35 461.05-32.68 465.22-30.35 467.6-26.28 469.97-22.2 469.97-17.15L469.97-17.15Q469.97-12.15 467.6-8.08 465.22-4 461.05-1.68 456.87 0.65 451.77 0.65L451.77 0.65ZM451.77-4.75Q455.07-4.75 457.65-6.38 460.22-8 461.62-10.85 463.02-13.7 463.02-17.15L463.02-17.15Q463.02-20.65 461.62-23.5 460.22-26.35 457.67-27.98 455.12-29.6 451.77-29.6L451.77-29.6Q448.32-29.6 445.75-27.95 443.17-26.3 441.77-23.48 440.37-20.65 440.37-17.15L440.37-17.15Q440.37-13.6 441.77-10.8 443.17-8 445.75-6.38 448.32-4.75 451.77-4.75L451.77-4.75ZM500.32-13.15L506.57-13.15 506.57 0 473.82 0 473.82-5.25 479.82-5.25 479.82-29.05 473.82-29.05 473.82-34.3 492.42-34.3 492.42-29.05 486.42-29.05 486.42-5.25 500.32-5.25 500.32-13.15Z" opacity="1" transform="matrix(1,0,0,1,0,0)" fill="#000000" class="wordmark-text-0" data-fill-palette-color="quaternary" id="text-0"></path></svg></g></svg></g></svg></g></svg></g><g transform="matrix(1,0,0,1,89.81610468927087,0)"><svg viewBox="0 0 45.48779062145823 32.836221451916416" height="32.836221451916416" width="45.48779062145823"><g><svg xmlns="http://www.w3.org/2000/svg" viewBox="2.9988453947886375 0.9547580015448897 18.00115460521136 20.04524199845511" x="8" y="0" height="32.836221451916416" width="29.48779062145823" class="icon-icon-0" data-fill-palette-color="quaternary" id="icon-0"><g fill="#fcf3e4" data-fill-palette-color="quaternary"><polygon points="16 19.59 16 12.71 12.71 16.29 16 19.59" fill="#000000" data-fill-palette-color="quaternary"></polygon><polygon points="8 21 16 21 12 17 8 21" fill="#000000" data-fill-palette-color="quaternary"></polygon><polygon points="15.29 12 8.71 12 12 15.59 15.29 12" fill="#000000" data-fill-palette-color="quaternary"></polygon><polygon points="8 19.59 11.29 16.29 8 12.71 8 19.59" fill="#000000" data-fill-palette-color="quaternary"></polygon><path d="M20.92 8.22l-3-4.5a0.72 0.72 0 0 0-0.21-0.18L12.21 1a0.51 0.51 0 0 0-0.42 0l-5.5 2.5a0.72 0.72 0 0 0-0.21 0.18l-3 4.5A0.54 0.54 0 0 0 3 8.5v12a0.5 0.5 0 0 0 0.5 0.5H7V11.5a0.5 0.5 0 0 1 0.5-0.5h9a0.5 0.5 0 0 1 0.5 0.5V21h3.5a0.5 0.5 0 0 0 0.5-0.5V8.5A0.54 0.54 0 0 0 20.92 8.22ZM13.5 8h-3a0.5 0.5 0 0 1 0-1h3a0.5 0.5 0 0 1 0 1Zm0-2h-3a0.5 0.5 0 0 1 0-1h3a0.5 0.5 0 0 1 0 1Z" fill="#000000" data-fill-palette-color="quaternary"></path></g></svg></g></svg></g><g><rect width="46.47210468927088" height="1.428463259775379" y="30.407758192141035" x="135.3038953107291" fill="#ffffff" data-fill-palette-color="secondary"></rect><rect width="46.47210468927088" height="1.428463259775379" y="30.407758192141035" x="43.343999999999994" fill="#ffffff" data-fill-palette-color="secondary"></rect></g></svg></g></svg></g></svg></g><defs></defs></svg><rect width="320" height="360" fill="none" stroke="none" visibility="hidden"></rect></g></svg></g></svg>